STARTFONT 2.1
FONT -Monotype-Nimrod-Regular-R-Normal--24-240-75-75-P-138-iso8859-5
SIZE 24 75 75
FONTBOUNDINGBOX 28 31 -1 -6

STARTPROPERTIES 24
FOUNDRY "Monotype"
FAMILY_NAME "Nimrod"
WEIGHT_NAME "Regular"
SLANT "R"
SETWIDTH_NAME "Normal"
ADD_STYLE_NAME ""
PIXEL_SIZE 24
POINT_SIZE 240
RESOLUTION_X 75
RESOLUTION_Y 75
SPACING "P"
AVERAGE_WIDTH 138
CHARSET_REGISTRY "iso8859"
CHARSET_ENCODING "5"
FACE_NAME "Nimrod ISO Latin Cyrillic"
_DEC_DEVICE_FONTNAMES "PS=nimrod-latcyrillic"
COPYRIGHT "Copyright (c) 1993 Monotype Typography Ltd."
CAP_HEIGHT 22
X_HEIGHT 16
WEIGHT 10
QUAD_WIDTH 17
DEFAULT_CHAR 160
FONT_DESCENT 6
FONT_ASCENT 25
ENDPROPERTIES

CHARS 191

STARTCHAR space
ENCODING 32
SWIDTH 250 0
DWIDTH 6 0
BBX 0 0 0 0
BITMAP
ENDCHAR

STARTCHAR exclam
ENCODING 33
SWIDTH 281 0
DWIDTH 7 0
BBX 3 19 2 0
BITMAP
E0
E0
E0
E0
E0
E0
E0
40
40
40
40
40
40
00
00
00
E0
E0
E0
ENDCHAR

STARTCHAR quotedbl
ENCODING 34
SWIDTH 406 0
DWIDTH 10 0
BBX 6 7 2 10
BITMAP
CC
CC
CC
CC
CC
8C
84
ENDCHAR

STARTCHAR numbersign
ENCODING 35
SWIDTH 667 0
DWIDTH 17 0
BBX 15 17 1 0
BITMAP
0608
0408
0418
0C10
0810
FFFE
0830
0830
1820
1020
1020
FFFE
1060
3040
2040
2040
20C0
ENDCHAR

STARTCHAR dollar
ENCODING 36
SWIDTH 500 0
DWIDTH 13 0
BBX 11 22 1 -3
BITMAP
0400
0F00
3FC0
6460
C460
C4E0
C4E0
6400
7C00
3F00
0F80
07C0
05E0
64E0
E460
E460
C460
64C0
3F80
0400
0400
0400
ENDCHAR

STARTCHAR percent
ENCODING 37
SWIDTH 1000 0
DWIDTH 25 0
BBX 18 19 4 0
BITMAP
380600
6C0400
C60800
C60800
C61000
C61000
C62000
C62000
6C4000
384700
008C80
0098C0
0118C0
0118C0
0218C0
0418C0
0418C0
080D80
180700
ENDCHAR

STARTCHAR ampersand
ENCODING 38
SWIDTH 781 0
DWIDTH 20 0
BBX 17 19 1 0
BITMAP
078000
0CE000
186000
186000
186000
18C000
1CC000
0F8000
0E0000
3E3F80
670600
430400
C38C00
C1C800
C0F800
E0F080
E07980
78DF80
3F0E00
ENDCHAR

STARTCHAR quoteright
ENCODING 39
SWIDTH 281 0
DWIDTH 7 0
BBX 4 7 2 12
BITMAP
60
F0
70
30
20
40
80
ENDCHAR

STARTCHAR parenleft
ENCODING 40
SWIDTH 354 0
DWIDTH 9 0
BBX 7 23 1 -4
BITMAP
02
06
0C
18
30
30
70
60
60
E0
E0
E0
E0
E0
60
60
70
30
30
18
0C
04
02
ENDCHAR

STARTCHAR parenright
ENCODING 41
SWIDTH 354 0
DWIDTH 9 0
BBX 7 23 1 -4
BITMAP
80
40
60
30
18
18
1C
0C
0C
0E
0E
0E
0E
0E
0C
0C
0C
18
18
30
60
40
80
ENDCHAR

STARTCHAR asterisk
ENCODING 42
SWIDTH 469 0
DWIDTH 12 0
BBX 10 10 1 9
BITMAP
0400
0C00
0C00
CCC0
F7C0
7E80
0800
3300
7380
3300
ENDCHAR

STARTCHAR plus
ENCODING 43
SWIDTH 667 0
DWIDTH 17 0
BBX 13 13 2 2
BITMAP
0200
0200
0200
0200
0200
0200
FFF8
0200
0200
0200
0200
0200
0200
ENDCHAR

STARTCHAR comma
ENCODING 44
SWIDTH 281 0
DWIDTH 7 0
BBX 4 7 2 -4
BITMAP
60
F0
70
30
20
40
80
ENDCHAR

STARTCHAR minus
ENCODING 45
SWIDTH 667 0
DWIDTH 17 0
BBX 13 1 2 8
BITMAP
FFF8
ENDCHAR

STARTCHAR period
ENCODING 46
SWIDTH 281 0
DWIDTH 7 0
BBX 3 3 2 0
BITMAP
E0
E0
E0
ENDCHAR

STARTCHAR slash
ENCODING 47
SWIDTH 510 0
DWIDTH 13 0
BBX 11 20 1 0
BITMAP
0060
0040
00C0
0080
0180
0100
0300
0200
0600
0400
0C00
0800
1800
1000
3000
2000
2000
4000
4000
8000
ENDCHAR

STARTCHAR zero
ENCODING 48
SWIDTH 500 0
DWIDTH 13 0
BBX 12 18 0 0
BITMAP
0F00
39C0
30C0
6060
6060
6070
E070
E070
E070
E070
E070
E070
6070
6060
6060
30C0
39C0
0F00
ENDCHAR

STARTCHAR one
ENCODING 49
SWIDTH 500 0
DWIDTH 13 0
BBX 10 19 1 0
BITMAP
0400
3C00
FC00
0C00
0C00
0C00
0C00
0C00
0C00
0C00
0C00
0C00
0C00
0C00
0C00
0C00
0C00
0C00
7FC0
ENDCHAR

STARTCHAR two
ENCODING 50
SWIDTH 500 0
DWIDTH 13 0
BBX 11 17 1 0
BITMAP
3F00
61C0
C0C0
C0E0
E0E0
E0E0
40C0
01C0
0380
0300
0600
0C00
1020
2020
4060
FFE0
FFE0
ENDCHAR

STARTCHAR three
ENCODING 51
SWIDTH 500 0
DWIDTH 13 0
BBX 11 18 1 0
BITMAP
1F00
3180
60C0
60C0
70C0
20C0
00C0
0180
1F00
0180
00C0
00E0
E0E0
E0E0
C0E0
C0C0
6180
1F00
ENDCHAR

STARTCHAR four
ENCODING 52
SWIDTH 500 0
DWIDTH 13 0
BBX 11 19 1 0
BITMAP
0180
0180
0380
0680
0580
0D80
1980
1180
3180
2180
6180
C180
8180
FFE0
0180
0180
0180
0180
0FE0
ENDCHAR

STARTCHAR five
ENCODING 53
SWIDTH 500 0
DWIDTH 13 0
BBX 11 19 1 0
BITMAP
0040
3FC0
3FC0
2000
6000
4000
4000
5F00
6380
01C0
00C0
00E0
40E0
E0E0
E0E0
C0C0
C1C0
6380
1F00
ENDCHAR

STARTCHAR six
ENCODING 54
SWIDTH 500 0
DWIDTH 13 0
BBX 11 18 1 0
BITMAP
1F80
31C0
61C0
61C0
6000
C000
C000
CF80
D1C0
E0C0
E0E0
C0E0
C0E0
E0E0
60C0
60C0
3180
1F00
ENDCHAR

STARTCHAR seven
ENCODING 55
SWIDTH 500 0
DWIDTH 13 0
BBX 11 18 1 -1
BITMAP
7FE0
7FE0
C040
C080
8080
8180
0100
0300
0300
0200
0600
0600
0E00
0E00
0E00
0E00
0C00
0400
ENDCHAR

STARTCHAR eight
ENCODING 56
SWIDTH 500 0
DWIDTH 13 0
BBX 12 18 0 0
BITMAP
1F80
38C0
70E0
6060
6060
6060
70E0
39C0
0F00
30C0
6060
E070
E070
E070
E070
7060
38C0
1F80
ENDCHAR

STARTCHAR nine
ENCODING 57
SWIDTH 500 0
DWIDTH 13 0
BBX 12 18 0 0
BITMAP
1F00
31C0
70C0
6060
E060
E070
E070
E070
70F0
79B0
3F70
0070
0060
0060
7060
70C0
3180
1F00
ENDCHAR

STARTCHAR colon
ENCODING 58
SWIDTH 281 0
DWIDTH 7 0
BBX 3 14 2 0
BITMAP
E0
E0
E0
00
00
00
00
00
00
00
00
E0
E0
E0
ENDCHAR

STARTCHAR semicolon
ENCODING 59
SWIDTH 281 0
DWIDTH 7 0
BBX 4 18 2 -4
BITMAP
E0
E0
E0
00
00
00
00
00
00
00
00
60
F0
70
30
20
40
80
ENDCHAR

STARTCHAR less
ENCODING 60
SWIDTH 667 0
DWIDTH 17 0
BBX 13 12 2 2
BITMAP
0018
0070
03C0
0E00
3800
E000
E000
3800
0F00
01C0
0070
0018
ENDCHAR

STARTCHAR equal
ENCODING 61
SWIDTH 667 0
DWIDTH 17 0
BBX 13 7 2 5
BITMAP
FFF8
0000
0000
0000
0000
0000
FFF8
ENDCHAR

STARTCHAR greater
ENCODING 62
SWIDTH 667 0
DWIDTH 17 0
BBX 13 12 2 2
BITMAP
8000
F000
1C00
0700
00E0
0018
0038
01E0
0700
1C00
F000
8000
ENDCHAR

STARTCHAR question
ENCODING 63
SWIDTH 448 0
DWIDTH 11 0
BBX 10 19 1 0
BITMAP
3E00
6380
E180
E1C0
E1C0
41C0
0380
0300
0600
0C00
0800
0800
0800
0000
0000
0000
1C00
1C00
1C00
ENDCHAR

STARTCHAR at
ENCODING 64
SWIDTH 917 0
DWIDTH 23 0
BBX 22 23 1 -5
BITMAP
007E00
038180
060040
080020
100010
200008
603988
404708
408308
C18308
830608
830608
860610
860C10
861C20
476CC4
438704
600008
200010
100020
0C0040
030380
00FC00
ENDCHAR

STARTCHAR A
ENCODING 65
SWIDTH 802 0
DWIDTH 20 0
BBX 19 19 1 0
BITMAP
00C000
00C000
00E000
01E000
016000
037000
023000
063800
043800
041800
0C1C00
080C00
1FFE00
100E00
100700
300700
300300
700780
FC1FE0
ENDCHAR

STARTCHAR B
ENCODING 66
SWIDTH 729 0
DWIDTH 18 0
BBX 16 20 1 0
BITMAP
FFF0
383C
381E
380E
380E
380E
380E
381C
3828
3FF0
381C
380E
3807
3807
3807
3807
3807
380E
381C
FFF8
ENDCHAR

STARTCHAR C
ENCODING 67
SWIDTH 719 0
DWIDTH 18 0
BBX 16 19 1 0
BITMAP
07F8
1E3E
380E
3006
7006
7002
E000
E000
E000
E000
E000
E000
E003
7003
7002
3006
380C
0E18
07F0
ENDCHAR

STARTCHAR D
ENCODING 68
SWIDTH 771 0
DWIDTH 19 0
BBX 17 20 1 0
BITMAP
FFF000
383C00
380E00
380600
380700
380700
380380
380380
380380
380380
380380
380380
380380
380380
380700
380700
380700
380E00
383C00
FFF000
ENDCHAR

STARTCHAR E
ENCODING 69
SWIDTH 719 0
DWIDTH 18 0
BBX 15 20 1 0
BITMAP
FFFC
381C
380C
3804
3804
3846
3846
38C0
38C0
3FC0
38C0
3840
3842
3842
3802
3806
3806
380E
381E
FFFE
ENDCHAR

STARTCHAR F
ENCODING 70
SWIDTH 667 0
DWIDTH 17 0
BBX 15 20 2 0
BITMAP
FFFC
381C
380C
3804
3806
3846
3846
38C0
38C0
3FC0
38C0
3840
3840
3840
3800
3800
3800
3800
3800
FF00
ENDCHAR

STARTCHAR G
ENCODING 71
SWIDTH 792 0
DWIDTH 20 0
BBX 18 19 1 0
BITMAP
07FC00
0E1E00
180700
380300
700300
700100
E00000
E00000
E00000
E00000
E03FC0
E00700
E00700
700700
700700
380700
1C0700
0E1E00
03F800
ENDCHAR

STARTCHAR H
ENCODING 72
SWIDTH 813 0
DWIDTH 20 0
BBX 18 20 1 0
BITMAP
FE1FC0
380700
380700
380700
380700
380700
380700
380700
380700
3FFF00
380700
380700
380700
380700
380700
380700
380700
380700
380700
FE1FC0
ENDCHAR

STARTCHAR I
ENCODING 73
SWIDTH 385 0
DWIDTH 10 0
BBX 9 20 0 0
BITMAP
FF80
1C00
1C00
1C00
1C00
1C00
1C00
1C00
1C00
1C00
1C00
1C00
1C00
1C00
1C00
1C00
1C00
1C00
1C00
FF80
ENDCHAR

STARTCHAR J
ENCODING 74
SWIDTH 573 0
DWIDTH 14 0
BBX 13 20 1 0
BITMAP
07F8
00E0
00E0
00E0
00E0
00E0
00E0
00E0
00E0
00E0
00E0
00E0
00E0
F0E0
E0E0
E0E0
C0E0
C1C0
6380
3F00
ENDCHAR

STARTCHAR K
ENCODING 75
SWIDTH 781 0
DWIDTH 20 0
BBX 18 20 1 0
BITMAP
FE3F80
380F00
380C00
380800
381800
383000
386000
38C000
39C000
3BE000
3AE000
3C7000
3C7000
383800
381C00
381C00
380E00
380700
380F00
FE3FC0
ENDCHAR

STARTCHAR L
ENCODING 76
SWIDTH 677 0
DWIDTH 17 0
BBX 15 20 1 0
BITMAP
FF00
3800
3800
3800
3800
3800
3800
3800
3800
3800
3800
3800
3802
3802
3802
3806
3806
380E
381E
FFFE
ENDCHAR

STARTCHAR M
ENCODING 77
SWIDTH 979 0
DWIDTH 24 0
BBX 23 20 0 0
BITMAP
FE007E
160058
1600D8
1700B8
1700B8
1301B8
138138
138138
11C338
11C238
10C238
10E638
10E438
106438
107C38
107838
103838
183838
383038
FE10FE
ENDCHAR

STARTCHAR N
ENCODING 78
SWIDTH 823 0
DWIDTH 21 0
BBX 20 20 1 0
BITMAP
F80FF0
3C01C0
1E00C0
160080
170080
138080
138080
11C080
10E080
10E080
107080
103880
103C80
101C80
100E80
100F80
100780
100380
380180
FF0180
ENDCHAR

STARTCHAR O
ENCODING 79
SWIDTH 792 0
DWIDTH 20 0
BBX 17 19 1 0
BITMAP
07F000
1C1C00
380E00
300600
700700
700300
E00380
E00380
E00380
E00380
E00380
E00380
E00380
700700
700700
300600
380E00
1E3800
07F000
ENDCHAR

STARTCHAR P
ENCODING 80
SWIDTH 667 0
DWIDTH 17 0
BBX 15 20 1 0
BITMAP
FFF0
383C
381C
380E
380E
380E
380E
380E
381C
3838
3FF0
3800
3800
3800
3800
3800
3800
3800
3800
FF00
ENDCHAR

STARTCHAR Q
ENCODING 81
SWIDTH 792 0
DWIDTH 20 0
BBX 19 22 1 -3
BITMAP
07F000
1C1C00
380E00
300700
700700
E00300
E00380
E00380
E00380
E00380
E00380
E78380
ECC380
786700
706700
387600
183600
0E3C00
07F800
001C00
000F00
0003E0
ENDCHAR

STARTCHAR R
ENCODING 82
SWIDTH 729 0
DWIDTH 18 0
BBX 17 20 1 0
BITMAP
FFF000
383800
381C00
380E00
380E00
380E00
380E00
380E00
381C00
383800
3FE000
38E000
387000
383800
383800
381C00
381C00
380E00
380E00
FF0780
ENDCHAR

STARTCHAR S
ENCODING 83
SWIDTH 615 0
DWIDTH 15 0
BBX 13 19 1 0
BITMAP
1FC0
30F0
6070
E030
E030
E010
7800
7E00
3F80
0FC0
03F0
00F0
8078
8038
C038
C038
E070
F0E0
3FC0
ENDCHAR

STARTCHAR T
ENCODING 84
SWIDTH 698 0
DWIDTH 17 0
BBX 17 20 0 0
BITMAP
7FFF00
71C700
61C300
61C100
41C100
C1C180
C1C180
C1C180
01C000
01C000
01C000
01C000
01C000
01C000
01C000
01C000
01C000
01C000
01C000
0FF800
ENDCHAR

STARTCHAR U
ENCODING 85
SWIDTH 771 0
DWIDTH 19 0
BBX 18 20 1 0
BITMAP
FF1FC0
380700
380200
380200
380200
380200
380200
380200
380200
380200
380200
380200
380200
380200
380200
380200
380600
1C0C00
0F1C00
07F000
ENDCHAR

STARTCHAR V
ENCODING 86
SWIDTH 792 0
DWIDTH 20 0
BBX 18 19 1 1
BITMAP
FE0FC0
380380
380300
180300
1C0200
1C0600
0C0400
0E0400
060C00
070800
071800
031800
039000
01B000
01E000
01E000
00E000
00C000
004000
ENDCHAR

STARTCHAR W
ENCODING 87
SWIDTH 1010 0
DWIDTH 25 0
BBX 24 19 1 1
BITMAP
FCFF3F
701C0E
301C0C
381C0C
381C08
183608
1C2E18
1C2610
0C6710
0E6730
0E4330
0643A0
07C3A0
0781E0
0781C0
0381C0
0381C0
030080
010080
ENDCHAR

STARTCHAR X
ENCODING 88
SWIDTH 729 0
DWIDTH 18 0
BBX 17 19 1 0
BITMAP
FE3F00
F81E00
380C00
381800
1C1000
0E3000
0F6000
074000
038000
01C000
03C000
02E000
067000
0C7800
083800
181C00
300E00
781F00
FC3F80
ENDCHAR

STARTCHAR Y
ENCODING 89
SWIDTH 729 0
DWIDTH 18 0
BBX 17 20 1 0
BITMAP
FE1F80
780F00
380600
380C00
1C0C00
1C1800
0E1000
073000
072000
03E000
03C000
01C000
01C000
01C000
01C000
01C000
01C000
01C000
01C000
0FF800
ENDCHAR

STARTCHAR Z
ENCODING 90
SWIDTH 625 0
DWIDTH 16 0
BBX 14 20 1 0
BITMAP
7FF8
7838
6038
4070
C0E0
C0E0
C1C0
01C0
0380
0780
0700
0E00
0E00
1C0C
3C0C
380C
701C
701C
E07C
FFF8
ENDCHAR

STARTCHAR bracketleft
ENCODING 91
SWIDTH 344 0
DWIDTH 9 0
BBX 6 22 2 -3
BITMAP
FC
C0
C0
C0
C0
C0
C0
C0
C0
C0
C0
C0
C0
C0
C0
C0
C0
C0
C0
C0
C0
FC
ENDCHAR

STARTCHAR backslash
ENCODING 92
SWIDTH 510 0
DWIDTH 13 0
BBX 11 20 1 0
BITMAP
8000
4000
4000
2000
2000
3000
1000
1800
0800
0C00
0400
0600
0200
0300
0100
0180
0080
00C0
0040
0060
ENDCHAR

STARTCHAR bracketright
ENCODING 93
SWIDTH 344 0
DWIDTH 9 0
BBX 6 22 0 -3
BITMAP
FC
0C
0C
0C
0C
0C
0C
0C
0C
0C
0C
0C
0C
0C
0C
0C
0C
0C
0C
0C
0C
FC
ENDCHAR

STARTCHAR asciicircum
ENCODING 94
SWIDTH 469 0
DWIDTH 12 0
BBX 11 9 0 8
BITMAP
0400
0600
0B00
0900
1080
3080
2040
4040
C020
ENDCHAR

STARTCHAR underscore
ENCODING 95
SWIDTH 500 0
DWIDTH 13 0
BBX 13 1 0 -5
BITMAP
FFF8
ENDCHAR

STARTCHAR quoteleft
ENCODING 96
SWIDTH 281 0
DWIDTH 7 0
BBX 4 7 1 12
BITMAP
10
20
40
C0
E0
F0
60
ENDCHAR

STARTCHAR a
ENCODING 97
SWIDTH 563 0
DWIDTH 14 0
BBX 12 14 1 0
BITMAP
1F80
71C0
60C0
E0C0
60C0
00C0
0FC0
38C0
E0C0
C0C0
C0C0
C1C0
E6F0
7C70
ENDCHAR

STARTCHAR b
ENCODING 98
SWIDTH 594 0
DWIDTH 15 0
BBX 13 20 1 0
BITMAP
3000
F000
3000
3000
3000
3000
33C0
34E0
3870
3030
3038
3038
3038
3038
3038
3038
3030
3870
3CE0
27C0
ENDCHAR

STARTCHAR c
ENCODING 99
SWIDTH 510 0
DWIDTH 13 0
BBX 11 14 1 0
BITMAP
0F80
38C0
70E0
60E0
60E0
E000
E000
E000
E000
E000
6020
7060
39C0
1F80
ENDCHAR

STARTCHAR d
ENCODING 100
SWIDTH 594 0
DWIDTH 15 0
BBX 13 20 1 0
BITMAP
0020
03E0
0060
0060
0060
0060
1E60
3160
70E0
6060
E060
E060
E060
E060
E060
E060
6060
70E0
3170
1E78
ENDCHAR

STARTCHAR e
ENCODING 101
SWIDTH 521 0
DWIDTH 13 0
BBX 12 14 1 0
BITMAP
1F80
38C0
7060
6060
E070
E070
FFF0
E000
E000
6000
6030
7060
38C0
1F80
ENDCHAR

STARTCHAR f
ENCODING 102
SWIDTH 344 0
DWIDTH 9 0
BBX 10 19 1 0
BITMAP
0F80
19C0
31C0
3000
3000
3000
FE00
3000
3000
3000
3000
3000
3000
3000
3000
3000
3000
3000
FE00
ENDCHAR

STARTCHAR g
ENCODING 103
SWIDTH 552 0
DWIDTH 14 0
BBX 13 18 1 -4
BITMAP
0F00
38F8
70D8
6060
6060
6060
70E0
10C0
3F80
C000
C000
7FC0
1FF0
6030
C030
C030
60E0
3F80
ENDCHAR

STARTCHAR h
ENCODING 104
SWIDTH 646 0
DWIDTH 16 0
BBX 14 19 1 0
BITMAP
F000
7000
3000
3000
3000
31C0
37E0
3C70
3830
3030
3030
3030
3030
3030
3030
3030
3030
3030
FCFC
ENDCHAR

STARTCHAR i
ENCODING 105
SWIDTH 365 0
DWIDTH 9 0
BBX 8 19 1 0
BITMAP
38
38
38
00
00
F8
F8
18
18
18
18
18
18
18
18
18
18
18
FF
ENDCHAR

STARTCHAR j
ENCODING 106
SWIDTH 323 0
DWIDTH 8 0
BBX 7 23 -1 -4
BITMAP
0E
0E
0E
00
00
3E
3E
06
06
06
06
06
06
06
06
06
06
06
06
06
C6
EC
78
ENDCHAR

STARTCHAR k
ENCODING 107
SWIDTH 625 0
DWIDTH 16 0
BBX 14 20 1 0
BITMAP
7000
F000
3000
3000
3000
3000
31F8
3060
30C0
3080
3100
3300
3780
3980
31C0
30E0
3060
3070
3038
FCFC
ENDCHAR

STARTCHAR l
ENCODING 108
SWIDTH 333 0
DWIDTH 8 0
BBX 8 19 0 0
BITMAP
F8
38
18
18
18
18
18
18
18
18
18
18
18
18
18
18
18
18
FF
ENDCHAR

STARTCHAR m
ENCODING 109
SWIDTH 938 0
DWIDTH 23 0
BBX 22 14 1 0
BITMAP
F1C1C0
F3F3E0
347470
383830
303030
303030
303030
303030
303030
303030
303030
303030
303030
FCFCFC
ENDCHAR

STARTCHAR n
ENCODING 110
SWIDTH 646 0
DWIDTH 16 0
BBX 14 14 1 0
BITMAP
F1C0
F3E0
3470
3830
3030
3030
3030
3030
3030
3030
3030
3030
3030
FCFC
ENDCHAR

STARTCHAR o
ENCODING 111
SWIDTH 562 0
DWIDTH 14 0
BBX 13 14 1 0
BITMAP
0F80
38E0
7070
6030
6038
E038
E038
E038
E038
6038
6030
3070
38E0
0F80
ENDCHAR

STARTCHAR p
ENCODING 112
SWIDTH 594 0
DWIDTH 15 0
BBX 13 18 1 -4
BITMAP
F3C0
3460
3870
3030
3038
3038
3038
3038
3038
3038
3030
3870
3460
33C0
3000
3000
3000
FE00
ENDCHAR

STARTCHAR q
ENCODING 113
SWIDTH 594 0
DWIDTH 15 0
BBX 13 18 1 -4
BITMAP
1F20
31E0
70E0
6060
E060
E060
E060
E060
E060
E060
6060
70E0
3360
1E60
0060
0060
0060
03F8
ENDCHAR

STARTCHAR r
ENCODING 114
SWIDTH 490 0
DWIDTH 12 0
BBX 11 14 1 0
BITMAP
F1C0
73E0
34E0
38C0
3000
3000
3000
3000
3000
3000
3000
3000
3000
FE00
ENDCHAR

STARTCHAR s
ENCODING 115
SWIDTH 479 0
DWIDTH 12 0
BBX 10 14 1 0
BITMAP
3F00
6380
C180
C080
E000
F000
7F00
1F80
03C0
80C0
80C0
C0C0
E180
7F00
ENDCHAR

STARTCHAR t
ENCODING 116
SWIDTH 375 0
DWIDTH 9 0
BBX 8 18 1 0
BITMAP
10
10
10
30
70
FF
30
30
30
30
30
30
30
30
30
31
3B
1E
ENDCHAR

STARTCHAR u
ENCODING 117
SWIDTH 646 0
DWIDTH 16 0
BBX 14 14 1 0
BITMAP
F1F0
F1F0
3030
3030
3030
3030
3030
3030
3030
3030
3070
38D0
1F3C
0E3C
ENDCHAR

STARTCHAR v
ENCODING 118
SWIDTH 594 0
DWIDTH 15 0
BBX 13 14 1 0
BITMAP
FCF8
7030
3020
3020
3860
1840
1840
1CC0
0C80
0E80
0F80
0700
0700
0300
ENDCHAR

STARTCHAR w
ENCODING 119
SWIDTH 833 0
DWIDTH 21 0
BBX 20 14 0 0
BITMAP
FDF9F0
307060
307040
3870C0
185080
18D880
1C9880
0C9900
0C9D00
0D8D00
070F00
070E00
070600
060600
ENDCHAR

STARTCHAR x
ENCODING 120
SWIDTH 583 0
DWIDTH 15 0
BBX 13 14 1 0
BITMAP
FCF8
7060
3040
3880
1D80
0F00
0600
0700
0D80
1980
11C0
20E0
6070
F9F8
ENDCHAR

STARTCHAR y
ENCODING 121
SWIDTH 594 0
DWIDTH 15 0
BBX 14 18 0 -4
BITMAP
FE7C
3818
1810
1810
1C30
0C20
0E20
0640
0640
07C0
0380
0380
0100
0100
0300
7200
7600
3C00
ENDCHAR

STARTCHAR z
ENCODING 122
SWIDTH 479 0
DWIDTH 12 0
BBX 10 14 1 0
BITMAP
FFC0
C1C0
C380
8300
8700
0600
0E00
1C00
1800
3840
7040
60C0
C0C0
FFC0
ENDCHAR

STARTCHAR braceleft
ENCODING 123
SWIDTH 479 0
DWIDTH 12 0
BBX 7 23 2 -4
BITMAP
06
08
10
30
30
30
30
30
10
10
20
C0
20
10
10
18
38
38
30
30
10
08
06
ENDCHAR

STARTCHAR bar
ENCODING 124
SWIDTH 510 0
DWIDTH 13 0
BBX 1 20 6 0
BITMAP
80
80
80
80
80
80
80
80
80
80
80
80
80
80
80
80
80
80
80
80
ENDCHAR

STARTCHAR braceright
ENCODING 125
SWIDTH 479 0
DWIDTH 12 0
BBX 7 23 2 -4
BITMAP
C0
20
10
18
18
38
38
30
10
10
08
06
0C
10
10
18
18
18
18
18
10
30
C0
ENDCHAR

STARTCHAR asciitilde
ENCODING 126
SWIDTH 667 0
DWIDTH 17 0
BBX 13 3 2 7
BITMAP
7C08
8710
81F0
ENDCHAR

STARTCHAR space
ENCODING 160
SWIDTH 250 0
DWIDTH 8 0
BBX 0 0 0 0
BITMAP
ENDCHAR

STARTCHAR afii10023
ENCODING 161
SWIDTH 698 0
DWIDTH 17 0
BBX 15 24 1 0
BITMAP
3838
3838
1010
0000
FFFC
381C
380C
3804
3804
3846
3846
38C0
38C0
3FC0
38C0
3840
3842
3842
3802
3806
3806
380E
381E
FFFE
ENDCHAR

STARTCHAR afii10051
ENCODING 162
SWIDTH 875 0
DWIDTH 22 0
BBX 20 20 1 0
BITMAP
FFFE00
E38E00
C38600
C38600
838200
838200
038000
038F00
03BFC0
03B1E0
03C0E0
038070
038070
038070
038070
038070
038070
038060
0386E0
1FF3C0
ENDCHAR

STARTCHAR afii10052
ENCODING 163
SWIDTH 635 0
DWIDTH 16 0
BBX 14 25 1 0
BITMAP
00E0
01E0
0700
0000
0000
FFFC
381C
380C
380C
3804
3804
3804
3800
3800
3800
3800
3800
3800
3800
3800
3800
3800
3800
3800
FE00
ENDCHAR

STARTCHAR afii10053
ENCODING 164
SWIDTH 698 0
DWIDTH 17 0
BBX 16 19 1 0
BITMAP
07F8
0E3E
380E
3006
7006
7002
E000
E000
E000
FFC0
E000
E000
E003
7003
7002
3006
380C
0E18
07F0
ENDCHAR

STARTCHAR afii10054
ENCODING 165
SWIDTH 594 0
DWIDTH 15 0
BBX 13 19 1 0
BITMAP
1FC0
30F0
6070
E030
E030
E010
7800
7E00
3F80
0FC0
03F0
00F0
8078
8038
C038
C038
E070
F0E0
3FC0
ENDCHAR

STARTCHAR afii10055
ENCODING 166
SWIDTH 385 0
DWIDTH 10 0
BBX 9 20 0 0
BITMAP
FF80
1C00
1C00
1C00
1C00
1C00
1C00
1C00
1C00
1C00
1C00
1C00
1C00
1C00
1C00
1C00
1C00
1C00
1C00
FF80
ENDCHAR

STARTCHAR afii10056
ENCODING 167
SWIDTH 385 0
DWIDTH 10 0
BBX 10 24 0 0
BITMAP
C1C0
E1C0
4080
0000
7F80
1C00
1C00
1C00
1C00
1C00
1C00
1C00
1C00
1C00
1C00
1C00
1C00
1C00
1C00
1C00
1C00
1C00
1C00
7F80
ENDCHAR

STARTCHAR afii10057
ENCODING 168
SWIDTH 573 0
DWIDTH 14 0
BBX 13 20 1 0
BITMAP
07F8
00E0
00E0
00E0
00E0
00E0
00E0
00E0
00E0
00E0
00E0
00E0
00E0
F0E0
E0E0
E0E0
C0E0
C1C0
6380
1F00
ENDCHAR

STARTCHAR afii10058
ENCODING 169
SWIDTH 1092 0
DWIDTH 27 0
BBX 26 20 0 0
BITMAP
1FFFE000
07070000
07070000
06070000
02070000
02070000
02070000
06070000
06070000
0607FC00
06070700
06070380
040701C0
040701C0
040701C0
040701C0
EC0701C0
E8070380
F81F0700
F01FFC00
ENDCHAR

STARTCHAR afii10059
ENCODING 170
SWIDTH 1089 0
DWIDTH 27 0
BBX 25 20 1 0
BITMAP
FE3FC000
380E0000
380E0000
380E0000
380E0000
380E0000
380E0000
380E0000
380E0000
3FFFFC00
380E1E00
380E0700
380E0380
380E0380
380E0380
380E0380
380E0380
380E0700
380E1E00
FE3FF800
ENDCHAR

STARTCHAR afii10060
ENCODING 171
SWIDTH 885 0
DWIDTH 22 0
BBX 21 20 0 0
BITMAP
FFFF00
E38F00
C38700
C38300
838300
838100
038000
038780
039FC0
03B1C0
03C0E0
0380E0
0380E0
0380E0
0380E0
0380E0
0380E0
0380E0
0380E0
1FF3F8
ENDCHAR

STARTCHAR afii10061
ENCODING 172
SWIDTH 759 0
DWIDTH 19 0
BBX 18 24 1 0
BITMAP
001000
007800
00F000
030000
FF0000
380700
380F80
380F80
381900
381000
383000
382000
386000
38C000
3FE000
38F000
383000
383800
381800
381C00
380C00
380E00
380700
FF07C0
ENDCHAR

STARTCHAR hyphen
ENCODING 173
SWIDTH 281 0
DWIDTH 7 0
BBX 5 2 1 6
BITMAP
F8
F8
ENDCHAR

STARTCHAR afii10062
ENCODING 174
SWIDTH 732 0
DWIDTH 18 0
BBX 18 25 1 0
BITMAP
061800
061800
061800
03F000
000000
000000
FE1FC0
780700
380600
380600
1C0400
1C0C00
0E0800
0E0800
061000
071000
033000
03A000
03A000
01C000
01C000
308000
388000
390000
1E0000
ENDCHAR

STARTCHAR afii10145
ENCODING 175
SWIDTH 823 0
DWIDTH 21 0
BBX 18 24 1 -4
BITMAP
FE1FC0
380700
380700
380700
380700
380700
380700
380700
380700
380700
380700
380700
380700
380700
380700
380700
380700
380700
380700
FFFFC0
03F000
00C000
00C000
00C000
ENDCHAR

STARTCHAR afii10017
ENCODING 176
SWIDTH 792 0
DWIDTH 20 0
BBX 20 19 0 0
BITMAP
006000
006000
00E000
00F000
00B000
01B800
013800
031C00
021C00
020C00
040E00
040600
0FFF00
080700
180300
100380
100180
3803C0
FE0FF0
ENDCHAR

STARTCHAR afii10018
ENCODING 177
SWIDTH 701 0
DWIDTH 18 0
BBX 15 20 1 0
BITMAP
FFFC
383C
380C
380C
3804
3804
3804
3800
3800
3FE0
3838
381C
380E
380E
380E
380E
380E
381C
383C
FFF0
ENDCHAR

STARTCHAR afii10019
ENCODING 178
SWIDTH 719 0
DWIDTH 18 0
BBX 16 20 1 0
BITMAP
FFF0
383C
381E
380E
380E
380E
380E
381C
3828
3FF0
381C
380E
3807
3807
3807
3807
3807
380E
381C
FFF8
ENDCHAR

STARTCHAR afii10020
ENCODING 179
SWIDTH 635 0
DWIDTH 16 0
BBX 14 20 1 0
BITMAP
FFFC
381C
380C
380C
3804
3804
3804
3800
3800
3800
3800
3800
3800
3800
3800
3800
3800
3800
3800
FE00
ENDCHAR

STARTCHAR afii10021
ENCODING 180
SWIDTH 760 0
DWIDTH 19 0
BBX 18 24 0 -4
BITMAP
0FFFC0
078700
030700
030700
030700
030700
030700
020700
020700
020700
020700
020700
060700
040700
040700
0C0700
080700
180700
300700
FFFFC0
F001C0
C000C0
C00040
800040
ENDCHAR

STARTCHAR afii10022
ENCODING 181
SWIDTH 698 0
DWIDTH 17 0
BBX 15 20 1 0
BITMAP
FFFC
381C
380C
3804
3804
3846
3846
38C0
38C0
3FC0
38C0
3840
3842
3842
3802
3806
3806
380E
381E
FFFE
ENDCHAR

STARTCHAR afii10024
ENCODING 182
SWIDTH 1115 0
DWIDTH 28 0
BBX 27 20 0 0
BITMAP
003F8000
300E0180
780E03C0
7C0E07C0
240E0480
060E0C00
020E0800
020E0800
030E1800
018E3000
01FFF000
038E3800
070E1C00
0E0E0E00
0E0E0E00
0C0E0600
1C0E0700
180E0300
380E0380
F83F83E0
ENDCHAR

STARTCHAR afii10025
ENCODING 183
SWIDTH 601 0
DWIDTH 15 0
BBX 13 19 1 0
BITMAP
3F80
F1E0
C0F0
C070
8070
8070
00E0
00E0
0700
0FC0
00F0
0078
0038
0038
8038
8038
4070
71E0
1FC0
ENDCHAR

STARTCHAR afii10026
ENCODING 184
SWIDTH 823 0
DWIDTH 21 0
BBX 18 19 1 0
BITMAP
FE1FC0
380700
380700
380F00
380F00
381B00
383700
382700
386700
38C700
388700
390700
3B0700
3A0700
3C0700
3C0700
380700
380700
FE1FC0
ENDCHAR

STARTCHAR afii10027
ENCODING 185
SWIDTH 823 0
DWIDTH 21 0
BBX 18 24 2 0
BITMAP
061800
061800
061800
01E000
000000
FE1FC0
380700
380700
380F00
380F00
381B00
383700
382700
386700
38C700
398700
390700
3B0700
3E0700
3C0700
3C0700
380700
380700
FE1FC0
ENDCHAR

STARTCHAR afii10028
ENCODING 186
SWIDTH 759 0
DWIDTH 19 0
BBX 18 20 1 0
BITMAP
FF0000
380700
380F80
380F80
381900
381000
383000
382000
386000
38C000
3FE000
38F000
383000
383800
381800
381C00
380C00
380E00
380700
FF07C0
ENDCHAR

STARTCHAR afii10029
ENCODING 187
SWIDTH 789 0
DWIDTH 20 0
BBX 19 20 0 0
BITMAP
0FFFE0
038380
030380
030380
030380
030380
030380
030380
030380
030380
030380
020380
020380
020380
020380
060380
640380
FC0380
7C0380
700FE0
ENDCHAR

STARTCHAR afii10030
ENCODING 188
SWIDTH 979 0
DWIDTH 24 0
BBX 23 20 0 0
BITMAP
FE007E
160058
1600D8
1700B8
1700B8
1301B8
138138
138138
11C338
11C238
10C238
10E638
10E438
106438
107C38
107838
103838
103838
383038
FE10FE
ENDCHAR

STARTCHAR afii10031
ENCODING 189
SWIDTH 812 0
DWIDTH 20 0
BBX 18 20 1 0
BITMAP
FE1FC0
380700
380700
380700
380700
380700
380700
380700
380700
3FFF00
380700
380700
380700
380700
380700
380700
380700
380700
380700
FE1FC0
ENDCHAR

STARTCHAR afii10032
ENCODING 190
SWIDTH 767 0
DWIDTH 19 0
BBX 17 19 1 0
BITMAP
07F000
1C1C00
380E00
300600
700700
700300
E00380
E00380
E00380
E00380
E00380
E00380
E00380
700700
700700
300600
380E00
1E3800
07F000
ENDCHAR

STARTCHAR afii10033
ENCODING 191
SWIDTH 823 0
DWIDTH 21 0
BBX 18 20 1 0
BITMAP
FFFFC0
380700
380700
380700
380700
380700
380700
380700
380700
380700
380700
380700
380700
380700
380700
380700
380700
380700
380700
FE1FC0
ENDCHAR

STARTCHAR afii10034
ENCODING 192
SWIDTH 662 0
DWIDTH 17 0
BBX 15 20 1 0
BITMAP
FFF0
383C
381C
380E
380E
380E
380E
380E
381C
3838
3FF0
3800
3800
3800
3800
3800
3800
3800
3800
FF00
ENDCHAR

STARTCHAR afii10035
ENCODING 193
SWIDTH 694 0
DWIDTH 17 0
BBX 16 19 1 0
BITMAP
07F8
1E1E
380E
3006
7006
7002
E000
E000
E000
E000
E000
E000
E003
7003
7002
3006
380C
0E18
07F0
ENDCHAR

STARTCHAR afii10036
ENCODING 194
SWIDTH 688 0
DWIDTH 17 0
BBX 17 19 0 0
BITMAP
7FFF00
71C700
61C300
41C100
C1C100
C1C180
C1C180
01C000
01C000
01C000
01C000
01C000
01C000
01C000
01C000
01C000
01C000
01C000
0FF800
ENDCHAR

STARTCHAR afii10037
ENCODING 195
SWIDTH 732 0
DWIDTH 18 0
BBX 18 19 0 0
BITMAP
FE1FC0
380380
380300
1C0200
1C0200
0E0400
0E0400
060C00
070800
031800
039000
039000
01E000
01E000
00C000
384000
388000
398000
1F0000
ENDCHAR

STARTCHAR afii10038
ENCODING 196
SWIDTH 799 0
DWIDTH 20 0
BBX 18 20 1 0
BITMAP
07F800
00E000
00C000
0FFC00
38C700
30C380
60C180
60C1C0
E0C1C0
E0C1C0
E0C1C0
E0C1C0
E0C1C0
60C180
30C380
38C700
0FFC00
00C000
01E000
07F800
ENDCHAR

STARTCHAR afii10039
ENCODING 197
SWIDTH 729 0
DWIDTH 18 0
BBX 17 19 1 0
BITMAP
FE3F00
F81E00
380C00
381800
1C1000
0E3000
0F6000
074000
038000
01C000
03C000
02E000
067000
0C7800
083800
181C00
300E00
781F00
FC3F80
ENDCHAR

STARTCHAR afii10040
ENCODING 198
SWIDTH 823 0
DWIDTH 21 0
BBX 18 24 1 -4
BITMAP
FE1FC0
380700
380700
380700
380700
380700
380700
380700
380700
380700
380700
380700
380700
380700
380700
380700
380700
380700
380780
FFFFC0
0001C0
0000C0
000040
000040
ENDCHAR

STARTCHAR afii10041
ENCODING 199
SWIDTH 761 0
DWIDTH 19 0
BBX 17 20 1 0
BITMAP
FE3F80
380E00
380E00
380E00
380E00
380E00
380E00
380E00
380E00
1C1E00
0FF600
078E00
000E00
000E00
000E00
000E00
000E00
000E00
000E00
003F80
ENDCHAR

STARTCHAR afii10042
ENCODING 200
SWIDTH 1073 0
DWIDTH 27 0
BBX 25 20 1 0
BITMAP
FE7F3F80
381C0E00
381C0E00
381C0E00
381C0E00
381C0E00
381C0E00
381C0E00
381C0E00
381C0E00
381C0E00
381C0E00
381C0E00
381C0E00
381C0E00
381C0E00
381C0E00
381C0E00
381C0E00
FFFFFF80
ENDCHAR

STARTCHAR afii10043
ENCODING 201
SWIDTH 1073 0
DWIDTH 27 0
BBX 25 24 1 -4
BITMAP
FE7F3F80
381C0E00
381C0E00
381C0E00
381C0E00
381C0E00
381C0E00
381C0E00
381C0E00
381C0E00
381C0E00
381C0E00
381C0E00
381C0E00
381C0E00
381C0E00
381C0E00
381C0E00
381C0E00
FFFFFF80
00000380
00000180
00000080
00000080
ENDCHAR

STARTCHAR afii10044
ENCODING 202
SWIDTH 879 0
DWIDTH 22 0
BBX 21 20 0 0
BITMAP
7FF800
71C000
61C000
41C000
41C000
C1C000
C1C000
01C000
01C000
01FF80
01C1E0
01C070
01C038
01C038
01C038
01C038
01C038
01C070
01C0E0
07FFC0
ENDCHAR

STARTCHAR afii10045
ENCODING 203
SWIDTH 1042 0
DWIDTH 26 0
BBX 24 20 1 0
BITMAP
FF0000
38007F
38001C
38001C
38001C
38001C
38001C
38001C
38001C
38001C
3FF81C
381E1C
380E1C
38071C
38071C
38071C
38071C
380E1C
381E1C
FFF87F
ENDCHAR

STARTCHAR afii10046
ENCODING 204
SWIDTH 704 0
DWIDTH 18 0
BBX 16 20 1 0
BITMAP
FF00
3800
3800
3800
3800
3800
3800
3800
3800
3FF0
383C
380E
3807
3807
3807
3807
3807
380E
381C
FFF8
ENDCHAR

STARTCHAR afii10047
ENCODING 205
SWIDTH 698 0
DWIDTH 17 0
BBX 16 19 0 0
BITMAP
1FE0
7C30
701C
600C
600E
400E
0007
0007
0007
03FF
0007
0007
C007
4006
400E
600C
301C
1878
0FE0
ENDCHAR

STARTCHAR afii10048
ENCODING 206
SWIDTH 1104 0
DWIDTH 28 0
BBX 26 20 1 0
BITMAP
FF000000
3803F800
380E0E00
381C0700
38380300
38380380
38780380
387001C0
387001C0
387001C0
3FF001C0
387001C0
387001C0
387001C0
38780380
38380380
38380300
381C0700
380F1C00
FF03F800
ENDCHAR

STARTCHAR afii10049
ENCODING 207
SWIDTH 729 0
DWIDTH 18 0
BBX 17 19 0 0
BITMAP
07FF80
1E0E00
1C0E00
380E00
380E00
380E00
380E00
1C0E00
0E0E00
01FE00
038E00
070E00
0E0E00
0E0E00
1C0E00
1C0E00
380E00
780E00
F07F80
ENDCHAR

STARTCHAR afii10065
ENCODING 208
SWIDTH 563 0
DWIDTH 14 0
BBX 12 14 1 0
BITMAP
1F80
71C0
60C0
E0C0
60C0
00C0
0FC0
38C0
E0C0
C0C0
C0C0
C1C0
E6F0
7C70
ENDCHAR

STARTCHAR afii10066
ENCODING 209
SWIDTH 567 0
DWIDTH 14 0
BBX 13 20 1 0
BITMAP
0018
03F0
1FE0
3C00
6000
4000
4F80
D8E0
B070
A030
E038
E038
E038
E038
6038
6030
6030
3060
18E0
0F80
ENDCHAR

STARTCHAR afii10067
ENCODING 210
SWIDTH 559 0
DWIDTH 14 0
BBX 13 14 0 0
BITMAP
FFC0
3870
3030
3030
3070
3020
3FC0
3070
3038
3038
3038
3038
7870
FFC0
ENDCHAR

STARTCHAR afii10068
ENCODING 211
SWIDTH 504 0
DWIDTH 13 0
BBX 12 14 1 0
BITMAP
FFE0
3060
3020
3020
3030
3000
3000
3000
3000
3000
3000
3000
7000
FC00
ENDCHAR

STARTCHAR afii10069
ENCODING 212
SWIDTH 616 0
DWIDTH 15 0
BBX 14 17 1 -3
BITMAP
3FFC
0C30
0C30
0C30
0830
0830
0830
0830
0830
1830
1030
3030
6030
FFFC
C00C
8004
8004
ENDCHAR

STARTCHAR afii10070
ENCODING 213
SWIDTH 513 0
DWIDTH 13 0
BBX 12 14 0 0
BITMAP
1F80
38C0
7060
6060
E070
E070
FFF0
E000
E000
6000
6030
7060
38C0
1F80
ENDCHAR

STARTCHAR afii10072
ENCODING 214
SWIDTH 844 0
DWIDTH 21 0
BBX 20 14 1 0
BITMAP
61F860
F060F0
586120
086100
0C6300
046200
07FE00
0E6700
0C6300
1C6380
3861C0
3861C0
7060E0
F1F8F0
ENDCHAR

STARTCHAR afii10073
ENCODING 215
SWIDTH 479 0
DWIDTH 12 0
BBX 11 14 1 0
BITMAP
3F00
71C0
60C0
40C0
40C0
0180
0E00
13C0
00C0
60E0
E0E0
E0E0
61C0
3F00
ENDCHAR

STARTCHAR afii10074
ENCODING 216
SWIDTH 646 0
DWIDTH 16 0
BBX 14 14 1 0
BITMAP
FCFC
3030
3030
3070
30D0
31B0
3130
3230
3630
3C30
3830
3030
3030
FCFC
ENDCHAR

STARTCHAR afii10075
ENCODING 217
SWIDTH 646 0
DWIDTH 16 0
BBX 15 20 0 0
BITMAP
0C30
0C30
0C30
03C0
0000
0000
FEFE
3038
3018
3038
3058
30D8
3198
3318
3618
3418
3818
3018
3838
FEFE
ENDCHAR

STARTCHAR afii10076
ENCODING 218
SWIDTH 602 0
DWIDTH 15 0
BBX 14 14 1 0
BITMAP
FC38
3078
3068
3040
3080
3080
3F00
3780
31C0
30E0
30E0
3070
3030
FC3C
ENDCHAR

STARTCHAR afii10077
ENCODING 219
SWIDTH 639 0
DWIDTH 16 0
BBX 15 14 0 0
BITMAP
1FFE
0E18
0418
0418
0418
0418
0418
0418
0C18
0C18
0818
C818
F818
F07E
ENDCHAR

STARTCHAR afii10078
ENCODING 220
SWIDTH 784 0
DWIDTH 20 0
BBX 18 14 1 0
BITMAP
F807C0
2C0D00
2C0B00
2C0B00
2E1300
261300
271300
272300
232300
23E300
23C300
21C300
218380
F88FC0
ENDCHAR

STARTCHAR afii10079
ENCODING 221
SWIDTH 646 0
DWIDTH 16 0
BBX 14 14 1 0
BITMAP
FCFC
3030
3030
3030
3030
3030
3FF0
3030
3030
3030
3030
3030
3038
FCFC
ENDCHAR

STARTCHAR afii10080
ENCODING 222
SWIDTH 548 0
DWIDTH 14 0
BBX 13 14 0 0
BITMAP
0F80
38E0
7070
6030
6038
E038
E038
E038
E038
6030
6030
3070
38E0
0F80
ENDCHAR

STARTCHAR afii10081
ENCODING 223
SWIDTH 646 0
DWIDTH 16 0
BBX 14 14 1 0
BITMAP
FFFC
3030
3030
3030
3030
3030
3030
3030
3030
3030
3030
3030
3038
FCFC
ENDCHAR

STARTCHAR afii10082
ENCODING 224
SWIDTH 594 0
DWIDTH 15 0
BBX 13 18 1 -4
BITMAP
F3C0
3460
3870
3030
3038
3038
3038
3038
3038
3038
3030
3870
3460
33C0
3000
3000
3000
FE00
ENDCHAR

STARTCHAR afii10083
ENCODING 225
SWIDTH 500 0
DWIDTH 13 0
BBX 11 14 1 0
BITMAP
0F80
38C0
70E0
60E0
60E0
E000
E000
E000
E000
E000
6020
7060
39C0
1F80
ENDCHAR

STARTCHAR afii10084
ENCODING 226
SWIDTH 552 0
DWIDTH 14 0
BBX 13 14 1 0
BITMAP
FFF0
C630
8610
8618
8618
0600
0600
0600
0600
0600
0600
0600
0E00
1F80
ENDCHAR

STARTCHAR afii10085
ENCODING 227
SWIDTH 573 0
DWIDTH 14 0
BBX 14 18 0 -4
BITMAP
FC7C
3818
3810
1830
1C20
0C20
0C60
0E40
0640
0780
0380
0380
0300
0100
0300
7200
7600
3800
ENDCHAR

STARTCHAR afii10086
ENCODING 228
SWIDTH 746 0
DWIDTH 19 0
BBX 17 23 1 -4
BITMAP
03F000
00C000
00C000
00C000
00C000
3EDE00
737700
61E300
E0C180
E0C180
C0C180
C0C180
C0C180
C0C180
C0C180
E0C180
61E300
737700
3EDE00
00C000
00C000
00C000
03F000
ENDCHAR

STARTCHAR afii10087
ENCODING 229
SWIDTH 583 0
DWIDTH 15 0
BBX 13 14 1 0
BITMAP
FCF8
7060
3040
3880
1D80
0F00
0600
0700
0D80
1980
11C0
20E0
6070
F9F8
ENDCHAR

STARTCHAR afii10088
ENCODING 230
SWIDTH 646 0
DWIDTH 16 0
BBX 14 17 1 -3
BITMAP
FCFC
3030
3030
3030
3030
3030
3030
3030
3030
3030
3030
3030
3038
FFFC
000C
0004
0004
ENDCHAR

STARTCHAR afii10089
ENCODING 231
SWIDTH 625 0
DWIDTH 16 0
BBX 14 14 1 0
BITMAP
FCFC
3030
3030
3030
3030
3030
3870
39D0
1F30
0030
0030
0030
0070
00FC
ENDCHAR

STARTCHAR afii10090
ENCODING 232
SWIDTH 927 0
DWIDTH 23 0
BBX 22 14 1 0
BITMAP
FCFCFC
303030
303030
303030
303030
303030
303030
303030
303030
303030
303030
303030
303030
FFFFFC
ENDCHAR

STARTCHAR afii10091
ENCODING 233
SWIDTH 927 0
DWIDTH 23 0
BBX 22 17 1 -3
BITMAP
FCFCFC
303030
303030
303030
303030
303030
303030
303030
303030
303030
303030
303030
303038
FFFFFC
00000C
000004
000004
ENDCHAR

STARTCHAR afii10092
ENCODING 234
SWIDTH 695 0
DWIDTH 17 0
BBX 16 14 1 0
BITMAP
FF80
C600
8600
8600
8600
0600
07FC
060E
0607
0607
0607
0607
0E0E
1FFC
ENDCHAR

STARTCHAR afii10093
ENCODING 235
SWIDTH 833 0
DWIDTH 21 0
BBX 19 14 1 0
BITMAP
FC07E0
300180
300180
300180
300180
300180
3FE180
307180
303980
303980
303980
303180
387180
FFE7E0
ENDCHAR

STARTCHAR afii10094
ENCODING 236
SWIDTH 565 0
DWIDTH 14 0
BBX 13 14 1 0
BITMAP
FC00
3000
3000
3000
3000
3000
3FE0
3070
3038
3038
3038
3038
3870
FFE0
ENDCHAR

STARTCHAR afii10095
ENCODING 237
SWIDTH 490 0
DWIDTH 12 0
BBX 11 14 0 0
BITMAP
3F00
6380
41C0
40C0
40E0
00E0
0FE0
00E0
00E0
E0E0
E0C0
E1C0
6380
3F00
ENDCHAR

STARTCHAR afii10096
ENCODING 238
SWIDTH 833 0
DWIDTH 21 0
BBX 20 14 1 0
BITMAP
FC1F00
3871C0
30E0E0
30C060
31C070
31C070
3FC070
31C070
31C070
30C060
30E060
3060E0
3871C0
FC1F00
ENDCHAR

STARTCHAR afii10097
ENCODING 239
SWIDTH 577 0
DWIDTH 14 0
BBX 14 13 0 0
BITMAP
0FFC
1C30
3830
3830
3830
1C30
03F0
0E30
0C30
1C30
1830
3870
F0FC
ENDCHAR

STARTCHAR afii61352
ENCODING 240
SWIDTH 1053 0
DWIDTH 26 0
BBX 25 19 1 0
BITMAP
7C01C000
1E03E000
0E036000
0F020000
0B020000
0B821E00
0B823300
09C26180
09C26180
08E26180
08726180
08726180
083A6180
083A3300
081E1E00
081E0000
E80E0000
F80E3E00
70063E00
ENDCHAR

STARTCHAR afii10071
ENCODING 241
SWIDTH 513 0
DWIDTH 13 0
BBX 12 18 0 0
BITMAP
18E0
38E0
1040
0000
1F80
38C0
7060
6060
E070
E070
FFF0
E000
E000
6000
6030
7060
38C0
1F80
ENDCHAR

STARTCHAR afii10099
ENCODING 242
SWIDTH 574 0
DWIDTH 14 0
BBX 13 23 1 -4
BITMAP
F000
7000
3000
FFC0
3000
31C0
37E0
3C70
3870
3030
3038
3038
3038
3038
3038
3038
3030
3030
FC30
0060
0060
01C0
0780
ENDCHAR

STARTCHAR afii10100
ENCODING 243
SWIDTH 504 0
DWIDTH 13 0
BBX 12 19 1 0
BITMAP
0380
0700
1C00
0000
0000
FFE0
3060
3020
3020
3030
3000
3000
3000
3000
3000
3000
3000
7000
FC00
ENDCHAR

STARTCHAR afii10101
ENCODING 244
SWIDTH 500 0
DWIDTH 13 0
BBX 11 14 1 0
BITMAP
1F80
38C0
70E0
60E0
E040
E000
FE00
E000
E000
6000
6020
7060
39C0
1F80
ENDCHAR

STARTCHAR afii10102
ENCODING 245
SWIDTH 458 0
DWIDTH 11 0
BBX 10 14 1 0
BITMAP
3F00
6380
C180
C080
E000
F800
7F00
1F80
03C0
80C0
80C0
C0C0
E180
7F00
ENDCHAR

STARTCHAR afii10103
ENCODING 246
SWIDTH 354 0
DWIDTH 9 0
BBX 8 18 1 0
BITMAP
38
38
38
00
00
F8
18
18
18
18
18
18
18
18
18
18
18
FF
ENDCHAR

STARTCHAR afii10104
ENCODING 247
SWIDTH 354 0
DWIDTH 9 0
BBX 8 18 0 0
BITMAP
E3
E7
62
00
78
78
18
18
18
18
18
18
18
18
18
18
18
7F
ENDCHAR

STARTCHAR afii10105
ENCODING 248
SWIDTH 323 0
DWIDTH 8 0
BBX 7 22 -1 -4
BITMAP
0E
0E
0E
00
02
3E
06
06
06
06
06
06
06
06
06
06
06
06
06
C6
EC
78
ENDCHAR

STARTCHAR afii10106
ENCODING 249
SWIDTH 887 0
DWIDTH 22 0
BBX 21 14 0 0
BITMAP
1FFE00
0E1800
041800
041800
041800
041800
041FE0
041870
041838
0C1838
081838
C81838
F81870
F07FE0
ENDCHAR

STARTCHAR afii10107
ENCODING 250
SWIDTH 888 0
DWIDTH 22 0
BBX 21 13 1 0
BITMAP
FE7E00
381800
301800
301800
301800
3FFFE0
301870
301838
301838
301838
301838
381870
FE7FE0
ENDCHAR

STARTCHAR afii10108
ENCODING 251
SWIDTH 635 0
DWIDTH 16 0
BBX 14 19 1 0
BITMAP
F000
7000
3000
FFC0
3000
31C0
33E0
3470
3830
3030
3030
3030
3030
3030
3030
3030
3030
3030
FCFC
ENDCHAR

STARTCHAR afii10109
ENCODING 252
SWIDTH 602 0
DWIDTH 15 0
BBX 14 19 1 0
BITMAP
0040
00E0
0380
0600
0000
FC38
3078
3068
3040
3080
3080
3F00
3780
31C0
30E0
30E0
3070
3030
FC3C
ENDCHAR

STARTCHAR section
ENCODING 253
SWIDTH 490 0
DWIDTH 12 0
BBX 11 23 1 -4
BITMAP
1F00
31C0
61C0
61C0
7080
7800
1C00
3F00
6780
C3C0
C1E0
E060
F060
7860
3EC0
0F80
0780
03C0
21C0
70C0
70C0
3180
1F00
ENDCHAR

STARTCHAR afii10110
ENCODING 254
SWIDTH 573 0
DWIDTH 14 0
BBX 15 24 0 -4
BITMAP
0C30
0C30
0C30
03C0
0000
0000
FE7E
3818
3818
1810
1C10
0C20
0E20
0660
0740
0740
0380
0380
0180
0100
0100
7200
7600
3C00
ENDCHAR

STARTCHAR afii10193
ENCODING 255
SWIDTH 646 0
DWIDTH 16 0
BBX 14 17 1 -3
BITMAP
FCFC
3030
3030
3030
3030
3030
3030
3030
3030
3030
3030
3030
3030
FFFC
0700
0300
0300
ENDCHAR
ENDFONT
